<?xml version="1.0" standalone="no"?><!DOCTYPE svg PUBLIC "-//W3C//DTD SVG 1.1//EN" "http://www.w3.org/Graphics/SVG/1.1/DTD/svg11.dtd"><svg t="1626318318501" class="icon" viewBox="0 0 1024 1024" version="1.1" xmlns="http://www.w3.org/2000/svg" p-id="3078" xmlns:xlink="http://www.w3.org/1999/xlink" width="200" height="200"><defs><style type="text/css"></style></defs><path d="M278.016 933.888a64.512 64.512 0 1 0 129.024 0 64.512 64.512 0 1 0-129.024 0zM940.032 569.344l49.152-263.68c2.56-14.336-6.656-28.16-20.992-30.72s-28.16 6.656-30.72 20.992l-49.152 263.68c-6.144 32.256-32.768 56.32-65.536 58.88L298.496 660.48c-32.768-206.848-57.344-354.816-73.728-445.952l-9.728-52.736c-5.12-27.648-9.216-45.568-11.776-54.272C182.272 36.352 71.168 57.344 58.88 59.904 44.544 62.976 35.328 76.8 38.4 91.136s16.896 23.552 31.232 20.48c31.744-6.656 78.848-5.12 83.456 10.752C162.816 154.624 197.12 358.912 256 728.576c8.192 51.712 51.712 89.088 103.936 89.088l540.16 2.048c14.336 0 26.112-11.776 26.112-26.112s-11.776-26.112-26.112-26.624l-540.16-2.048c-26.112 0-48.128-18.944-52.224-45.056-0.512-2.56-0.512-5.12-1.024-7.68L826.88 670.72c56.32-4.096 102.912-46.08 113.152-101.376zM757.248 933.888a64.512 64.512 0 1 0 129.024 0 64.512 64.512 0 1 0-129.024 0z" fill="#1296db" p-id="3079"></path><path d="M446.464 432.128l-71.168 98.304h60.928c6.656 0 12.288 5.632 12.288 12.288 0 6.656-5.632 12.288-12.288 12.288h-89.6c-7.168 0-12.288-5.632-12.288-12.288 0-2.56 1.024-5.12 2.56-7.68l72.192-97.792h-56.32c-6.656 0-12.288-5.632-12.288-12.288 0-6.656 5.632-12.288 12.288-12.288h83.968c7.168 0 12.288 5.632 12.288 12.288-0.512 2.56-1.024 5.12-2.56 7.168zM639.488 269.824l-71.168 98.304h60.928c6.656 0 12.288 5.632 12.288 12.288 0 6.656-5.632 12.288-12.288 12.288h-89.6c-7.168 0-12.288-5.632-12.288-12.288v-0.512c0-2.56 1.024-5.12 2.56-7.68l72.192-97.792h-56.32c-6.656 0-12.288-5.632-12.288-12.288 0-6.656 5.632-12.288 12.288-12.288h83.968c7.168 0 12.288 5.632 12.288 12.288-0.512 3.072-1.024 5.632-2.56 7.68zM866.304 116.736l-102.912 143.36h88.064c10.24 0 17.92 8.192 17.92 17.92 0 10.24-8.192 17.92-17.92 17.92H721.408a18.355 18.355 0 0 1-18.432-18.432v-0.512c0-4.096 1.024-7.68 3.584-10.752l104.96-142.336h-82.432c-10.24 0-17.92-8.192-17.92-17.92 0-10.24 8.192-17.92 17.92-17.92h122.368a18.355 18.355 0 0 1 18.432 18.432c0 3.584-1.024 7.168-3.584 10.24z" fill="#1296db" p-id="3080"></path></svg>